%FSLAX25Y25*%
%MOIN*%
G70*
G01*
G75*
G04 Layer_Color=2752767*
%ADD10C,0.00500*%
%ADD11C,0.00667*%
D10*
X35252Y54449D02*
Y58449D01*
X39252D01*
Y54449D01*
X35252D01*
X84465Y34764D02*
Y38764D01*
X88465D01*
Y34764D01*
X84465D01*
Y54449D02*
Y58449D01*
X88465D01*
Y54449D01*
X84465D01*
X35252Y34764D02*
Y38764D01*
X39252D01*
Y34764D01*
X35252D01*
X13780Y78709D02*
X11779Y82709D01*
X15779D01*
X13780Y78709D01*
Y11779D02*
X11779Y15779D01*
X15779D01*
X13780Y11779D01*
D11*
X9516Y86972D02*
G03*
X9516Y86972I-2000J0D01*
G01*
X22043D02*
G03*
X22043Y86972I-2000J0D01*
G01*
X15779Y89567D02*
G03*
X15779Y89567I-2000J0D01*
G01*
X6921Y80709D02*
G03*
X6921Y80709I-2000J0D01*
G01*
X9516Y74445D02*
G03*
X9516Y74445I-2000J0D01*
G01*
X15779Y71850D02*
G03*
X15779Y71850I-2000J0D01*
G01*
X22043Y74445D02*
G03*
X22043Y74445I-2000J0D01*
G01*
X24638Y80709D02*
G03*
X24638Y80709I-2000J0D01*
G01*
X9516Y20043D02*
G03*
X9516Y20043I-2000J0D01*
G01*
X22043D02*
G03*
X22043Y20043I-2000J0D01*
G01*
X15779Y22638D02*
G03*
X15779Y22638I-2000J0D01*
G01*
X6921Y13780D02*
G03*
X6921Y13780I-2000J0D01*
G01*
X9516Y7516D02*
G03*
X9516Y7516I-2000J0D01*
G01*
X15779Y4921D02*
G03*
X15779Y4921I-2000J0D01*
G01*
X22043Y7516D02*
G03*
X22043Y7516I-2000J0D01*
G01*
X24638Y13780D02*
G03*
X24638Y13780I-2000J0D01*
G01*
M02*
