%FSLAX25Y25*%
%MOIN*%
G70*
G01*
G75*
G04 Layer_Physical_Order=2*
G04 Layer_Color=16711680*
%ADD10R,0.02362X0.03150*%
%ADD11R,0.11811X0.03937*%
%ADD12R,0.11811X0.05906*%
%ADD13C,0.01000*%
%ADD14C,0.07874*%
%ADD15C,0.03937*%
%ADD16C,0.23622*%
G36*
X150149Y1820D02*
X23901D01*
X23517Y3750D01*
X23723Y3836D01*
X27842Y13780D01*
X23723Y23723D01*
X13780Y27842D01*
X3836Y23723D01*
X3750Y23517D01*
X1820Y23901D01*
Y70587D01*
X3750Y70971D01*
X3836Y70765D01*
X13780Y66646D01*
X23723Y70765D01*
X27842Y80709D01*
X23729Y90638D01*
X24823Y92275D01*
X150149D01*
Y1820D01*
D02*
G37*
%LPC*%
G36*
X86465Y42304D02*
X82547Y40681D01*
X80925Y36764D01*
X82547Y32847D01*
X86465Y31224D01*
X90382Y32847D01*
X92004Y36764D01*
X90382Y40681D01*
X86465Y42304D01*
D02*
G37*
G36*
X37252D02*
X33335Y40681D01*
X31712Y36764D01*
X33335Y32847D01*
X37252Y31224D01*
X41169Y32847D01*
X42792Y36764D01*
X41169Y40681D01*
X37252Y42304D01*
D02*
G37*
G36*
X86465Y61989D02*
X82547Y60366D01*
X80925Y56449D01*
X82547Y52532D01*
X86465Y50909D01*
X90382Y52532D01*
X92004Y56449D01*
X90382Y60366D01*
X86465Y61989D01*
D02*
G37*
G36*
X37252D02*
X33335Y60366D01*
X31712Y56449D01*
X33335Y52532D01*
X37252Y50909D01*
X41169Y52532D01*
X42792Y56449D01*
X41169Y60366D01*
X37252Y61989D01*
D02*
G37*
%LPD*%
D14*
Y56449D02*
D03*
X86465Y36764D02*
D03*
Y56449D02*
D03*
X37252Y36764D02*
D03*
D15*
X7516Y86972D02*
D03*
X20043D02*
D03*
X13780Y89567D02*
D03*
X4921Y80709D02*
D03*
X7516Y74445D02*
D03*
X13780Y71850D02*
D03*
X20043Y74445D02*
D03*
X22638Y80709D02*
D03*
X7516Y20043D02*
D03*
X20043D02*
D03*
X13780Y22638D02*
D03*
X4921Y13780D02*
D03*
X7516Y7516D02*
D03*
X13780Y4921D02*
D03*
X20043Y7516D02*
D03*
X22638Y13780D02*
D03*
D16*
X13780Y80709D02*
D03*
Y13780D02*
D03*
M02*
