M48
;Layer_Color=9474304
;FILE_FORMAT=2:5
INCH,TZ
;TYPE=PLATED
T1F00S00C0.01968
T2F00S00C0.04724
T3F00S00C0.11811
%
T01
X7516Y7516
X4921Y13780
X7516Y20043
X13780Y22638
X20043Y20043
X22638Y13780
X20043Y7516
X13780Y4921
Y71850
X7516Y74445
X4921Y80709
X7516Y86972
X13780Y89567
X20043Y86972
X22638Y80709
X20043Y74445
T02
X86465Y36764
Y56449
X37252
Y36764
T03
X13780Y13780
Y80709
M30
