%FSLAX25Y25*%
%MOIN*%
G70*
G01*
G75*
%ADD10R,0.02362X0.03150*%
%ADD11R,0.11811X0.03937*%
%ADD12R,0.11811X0.05906*%
%ADD13C,0.01000*%
%ADD14C,0.07874*%
%ADD15C,0.03937*%
%ADD16C,0.23622*%
%ADD17C,0.00300*%
%ADD18C,0.00500*%
%ADD19C,0.00394*%
D13*
X65402Y28890D02*
G03*
X65402Y28890I-3543J0D01*
G01*
Y64323D02*
G03*
X65402Y64323I-3543J0D01*
G01*
X147358Y30606D02*
Y70606D01*
X122358D02*
X147358D01*
X121858Y70106D02*
X122358Y70606D01*
X121858Y30606D02*
Y70106D01*
Y30606D02*
X147358D01*
X31358Y23606D02*
Y71106D01*
Y23606D02*
X92858D01*
Y71106D01*
X31358D02*
X92858D01*
D17*
X85039Y17717D02*
X87795D01*
X85039Y13780D02*
X87795D01*
X85039D02*
Y17717D01*
X94488Y13780D02*
Y17717D01*
X91732D02*
X94488D01*
X91732Y13780D02*
X94488D01*
X85039Y11811D02*
X87795D01*
X85039Y7874D02*
X87795D01*
X85039D02*
Y11811D01*
X94488Y7874D02*
Y11811D01*
X91732D02*
X94488D01*
X91732Y7874D02*
X94488D01*
X102012Y18075D02*
X104768D01*
X102012Y14138D02*
X104768D01*
X102012D02*
Y18075D01*
X111461Y14138D02*
Y18075D01*
X108705D02*
X111461D01*
X108705Y14138D02*
X111461D01*
X101969Y11024D02*
X104724D01*
X101969Y7087D02*
X104724D01*
X101969D02*
Y11024D01*
X111417Y7087D02*
Y11024D01*
X108661D02*
X111417D01*
X108661Y7087D02*
X111417D01*
D18*
X48577Y51212D02*
X47910D01*
X48244D01*
Y49546D01*
X47910Y49213D01*
X47577D01*
X47244Y49546D01*
X133465Y50818D02*
Y48819D01*
X134464D01*
X134798Y49152D01*
Y50485D01*
X134464Y50818D01*
X133465D01*
X2500Y96999D02*
Y95666D01*
X3167Y95000D01*
X3833Y95666D01*
Y96999D01*
X4499Y95000D02*
X5166D01*
X4833D01*
Y96999D01*
X4499Y96666D01*
D19*
X80709Y15354D02*
Y17322D01*
X81693D01*
X82021Y16994D01*
Y16338D01*
X81693Y16010D01*
X80709D01*
X81365D02*
X82021Y15354D01*
X82677D02*
X83333D01*
X83004D01*
Y17322D01*
X82677Y16994D01*
X81200Y11568D02*
Y9600D01*
X82512D01*
X104724Y21654D02*
Y23621D01*
X105708D01*
X106036Y23293D01*
Y22637D01*
X105708Y22309D01*
X104724D01*
X105380D02*
X106036Y21654D01*
X106692Y23293D02*
X107020Y23621D01*
X107676D01*
X108004Y23293D01*
Y22965D01*
X107676Y22637D01*
X107348D01*
X107676D01*
X108004Y22309D01*
Y21982D01*
X107676Y21654D01*
X107020D01*
X106692Y21982D01*
X115354Y5512D02*
Y7480D01*
X116338D01*
X116666Y7152D01*
Y6496D01*
X116338Y6168D01*
X115354D01*
X116010D02*
X116666Y5512D01*
X118634D02*
X117322D01*
X118634Y6824D01*
Y7152D01*
X118306Y7480D01*
X117650D01*
X117322Y7152D01*
M02*
