%FSLAX25Y25*%
%MOIN*%
G70*
G01*
G75*
G04 Layer_Physical_Order=1*
G04 Layer_Color=255*
%ADD10R,0.02362X0.03150*%
%ADD11R,0.11811X0.03937*%
%ADD12R,0.11811X0.05906*%
%ADD13C,0.01000*%
%ADD14C,0.07874*%
%ADD15C,0.03937*%
%ADD16C,0.23622*%
D10*
X86614Y15748D02*
D03*
X92913D02*
D03*
X86614Y9843D02*
D03*
X92913D02*
D03*
X103587Y16106D02*
D03*
X109886D02*
D03*
X103543Y9055D02*
D03*
X109843D02*
D03*
D11*
X121858Y58480D02*
D03*
Y50606D02*
D03*
Y42732D02*
D03*
Y58480D02*
D03*
D12*
X141543Y67142D02*
D03*
Y34071D02*
D03*
D13*
X99480Y20606D02*
X103980Y16106D01*
X103390Y9449D02*
Y16106D01*
X92913Y10630D02*
Y16130D01*
X121858Y23106D02*
Y42732D01*
X114858Y16106D02*
X121858Y23106D01*
X109886Y16106D02*
X114858D01*
X103980Y16106D02*
X103980Y16106D01*
X86465Y20606D02*
X99480D01*
X86465D02*
Y36764D01*
Y15748D02*
Y20606D01*
X92307Y50606D02*
X121858D01*
X86465Y56449D02*
X92307Y50606D01*
D14*
X37252Y56449D02*
D03*
X86465Y36764D02*
D03*
Y56449D02*
D03*
X37252Y36764D02*
D03*
D15*
X7516Y86972D02*
D03*
X20043D02*
D03*
X13780Y89567D02*
D03*
X4921Y80709D02*
D03*
X7516Y74445D02*
D03*
X13780Y71850D02*
D03*
X20043Y74445D02*
D03*
X22638Y80709D02*
D03*
X7516Y20043D02*
D03*
X20043D02*
D03*
X13780Y22638D02*
D03*
X4921Y13780D02*
D03*
X7516Y7516D02*
D03*
X13780Y4921D02*
D03*
X20043Y7516D02*
D03*
X22638Y13780D02*
D03*
D16*
X13780Y80709D02*
D03*
Y13780D02*
D03*
M02*
